<?xml version="1.0" standalone="no"?>
<!DOCTYPE svg PUBLIC "-//W3C//DTD SVG 20010904//EN"
 "http://www.w3.org/TR/2001/REC-SVG-20010904/DTD/svg10.dtd">
<svg version="1.0" xmlns="http://www.w3.org/2000/svg"
 width="700.000000pt" height="700.000000pt" viewBox="0 0 700.000000 700.000000"
 preserveAspectRatio="xMidYMid meet">
<metadata>
Created by potrace 1.14, written by Peter Selinger 2001-2017
</metadata>
<g transform="translate(0.000000,700.000000) scale(0.100000,-0.100000)"
fill="#000000" stroke="none">
<path d="M3268 6995 c-2 -2 -37 -6 -78 -9 -101 -9 -161 -15 -185 -21 -11 -2
-42 -7 -70 -10 -86 -11 -315 -64 -451 -105 -281 -84 -629 -240 -844 -379 -31
-20 -63 -40 -72 -46 -31 -19 -243 -172 -266 -193 -13 -11 -42 -35 -65 -54
-203 -163 -530 -533 -698 -793 -94 -144 -196 -343 -300 -583 -75 -173 -167
-514 -214 -787 -24 -146 -24 -825 1 -1022 7 -61 44 -255 54 -288 5 -16 12 -44
15 -61 14 -88 128 -412 205 -585 44 -98 69 -147 149 -294 66 -120 286 -435
353 -507 7 -7 28 -31 47 -53 112 -134 372 -379 506 -477 6 -4 24 -19 40 -32
52 -41 277 -191 338 -225 350 -194 746 -343 1087 -406 82 -15 141 -25 185 -30
28 -4 61 -8 75 -11 159 -26 678 -22 850 6 30 5 74 12 98 15 233 33 598 132
770 211 29 13 55 24 58 24 13 0 281 134 370 185 307 178 514 342 800 635 154
158 233 256 358 445 90 135 226 362 226 377 0 9 -175 10 -1755 11 l-1360 1
-1557 1559 c-857 857 -1558 1561 -1558 1565 0 4 701 7 1558 7 l1557 0 1564
-1562 1564 -1562 24 52 c79 170 223 571 237 663 4 22 11 55 16 74 5 19 12 51
15 70 3 19 8 42 10 50 6 19 11 56 25 156 6 44 13 91 16 105 10 41 13 680 4
749 -5 36 -12 90 -16 120 -5 44 -52 292 -68 360 -100 424 -332 905 -620 1285
-152 201 -442 491 -651 651 -285 218 -617 399 -940 514 -91 32 -297 97 -335
105 -234 50 -267 56 -375 70 -27 4 -61 9 -75 11 -64 10 -613 27 -622 19z"/>
</g>
</svg>
