<?xml version="1.0" standalone="no"?>
<!DOCTYPE svg PUBLIC "-//W3C//DTD SVG 20010904//EN"
 "http://www.w3.org/TR/2001/REC-SVG-20010904/DTD/svg10.dtd">
<svg version="1.0" xmlns="http://www.w3.org/2000/svg"
 width="700.000000pt" height="700.000000pt" viewBox="0 0 700.000000 700.000000"
 preserveAspectRatio="xMidYMid meet">
<metadata>
Created by potrace 1.14, written by Peter Selinger 2001-2017
</metadata>
<g transform="translate(0.000000,700.000000) scale(0.100000,-0.100000)"
fill="#000000" stroke="none">
<path d="M3268 6995 c-2 -1 -41 -6 -88 -9 -267 -21 -598 -93 -860 -188 -233
-84 -538 -231 -682 -329 -32 -21 -60 -39 -63 -39 -3 0 -11 -5 -18 -10 -7 -6
-55 -41 -107 -77 -89 -63 -115 -83 -144 -108 -6 -6 -36 -30 -66 -55 -280 -230
-596 -603 -782 -925 -58 -100 -197 -393 -236 -495 -58 -155 -131 -403 -158
-535 -53 -262 -58 -318 -58 -665 1 -329 9 -521 28 -625 8 -44 17 -96 21 -115
3 -19 13 -64 21 -100 9 -36 17 -73 19 -83 13 -63 77 -262 121 -374 114 -297
211 -482 395 -753 243 -358 600 -705 979 -950 8 -5 32 -21 53 -35 127 -84 388
-213 577 -285 213 -81 380 -132 525 -160 28 -6 61 -12 75 -15 14 -3 41 -8 60
-11 19 -3 42 -7 50 -9 8 -2 42 -7 75 -11 33 -3 69 -8 80 -10 89 -18 478 -24
689 -11 66 5 122 9 125 11 3 2 30 7 60 10 30 4 64 9 75 11 12 3 37 7 56 9 75
9 245 49 445 106 195 55 526 204 745 336 271 164 442 299 695 550 170 168 281
303 412 499 83 123 223 362 223 380 0 7 -526 10 -1557 10 l-1558 -1 -1562
1562 c-860 860 -1563 1565 -1563 1567 0 2 703 4 1561 4 l1562 0 1565 -1564
1565 -1564 13 30 c7 17 20 45 28 63 97 215 198 504 223 638 2 14 10 50 18 80
7 30 16 71 19 90 3 19 8 46 11 60 3 14 7 43 10 65 5 42 13 100 21 148 15 93
21 564 9 697 -5 64 -32 256 -40 295 -3 11 -7 31 -9 45 -99 557 -369 1129 -750
1590 -76 92 -278 296 -395 400 -538 476 -1260 784 -1981 845 -72 6 -527 15
-532 10z"/>
</g>
</svg>
